<?xml version="1.0" standalone="no"?><!DOCTYPE svg PUBLIC "-//W3C//DTD SVG 1.1//EN" "http://www.w3.org/Graphics/SVG/1.1/DTD/svg11.dtd"><svg class="icon" width="200px" height="200.00px" viewBox="0 0 1024 1024" version="1.1" xmlns="http://www.w3.org/2000/svg"><path d="M192 320A64 64 0 0 1 256 384v448A64 64 0 0 1 192 896h-128C28.714667 896 0 867.328 0 832V384c0-35.328 28.714667-64 64-64h128z m384-192A64 64 0 0 1 640 192v640a64 64 0 0 1-64 64h-128c-35.285333 0-64-28.672-64-64v-640c0-35.328 28.714667-64 64-64h128z m384 320A64 64 0 0 1 1024 512v320a64 64 0 0 1-64 64h-128a64 64 0 0 1-64-64V512a64 64 0 0 1 64-64h128z"  /></svg>